<svg width="36" height="36" viewBox="0 0 36 36" fill="none" xmlns="http://www.w3.org/2000/svg">
<path d="M3 4.70325L30 32.6343" stroke="#125A50" stroke-width="2.5" stroke-linecap="round"/>
<path fill-rule="evenodd" clip-rule="evenodd" d="M7.74171 7.94301C5.41623 10.6035 4 14.1307 4 18C4 26.2842 10.4919 33 18.5 33C22.2403 33 25.6499 31.5349 28.2217 29.1292L23.3086 24.0467C22.5393 25.3399 21.1455 26.2363 19.5875 26.525V27C19.5875 27.6213 19.1006 28.125 18.5 28.125C17.8994 28.125 17.4125 27.6213 17.4125 27V26.525C15.0484 26.087 13.0625 24.2496 13.0625 21.75C13.0625 21.1287 13.5494 20.625 14.15 20.625C14.7506 20.625 15.2375 21.1287 15.2375 21.75C15.2375 23.0165 16.5041 24.375 18.5 24.375C20.1806 24.375 21.3441 23.4118 21.6698 22.3514L18.5513 19.1253C18.5342 19.1251 18.5171 19.125 18.5 19.125C15.6911 19.125 13.0625 17.1258 13.0625 14.25C13.0625 13.996 13.083 13.7488 13.1223 13.5092L7.74171 7.94301ZM15.5519 13.1466C16.0448 12.3025 17.0905 11.625 18.5 11.625C20.4959 11.625 21.7625 12.9836 21.7625 14.25C21.7625 14.8713 22.2494 15.375 22.85 15.375C23.4506 15.375 23.9375 14.8713 23.9375 14.25C23.9375 11.7504 21.9516 9.913 19.5875 9.47509V9C19.5875 8.37868 19.1006 7.875 18.5 7.875C17.8994 7.875 17.4125 8.37868 17.4125 9V9.47509C16.0341 9.73042 14.7843 10.4615 13.9817 11.5222L9.15563 6.52973C11.6793 4.32733 14.9398 3 18.5 3C26.5081 3 33 9.71572 33 18C33 21.6829 31.7169 25.0559 29.5879 27.6666L23.937 21.8208C23.9373 21.7972 23.9375 21.7736 23.9375 21.75C23.9375 19.1133 21.7279 17.2135 19.1955 16.9158L15.5519 13.1466Z" fill="#125A50"/>
</svg>
