<svg width="36" height="36" viewBox="0 0 36 36" fill="none" xmlns="http://www.w3.org/2000/svg">
<path d="M3 4.64648L30 31.6465" stroke="#12195A" stroke-width="2.5" stroke-linecap="round"/>
<path fill-rule="evenodd" clip-rule="evenodd" d="M7.80752 7.86822C5.44298 10.5372 4 14.0943 4 18C4 26.2842 10.4919 33 18.5 33C22.4522 33 26.0352 31.3642 28.6507 28.7114L23.541 23.6017C22.8466 25.1334 21.3184 26.2043 19.5875 26.525V27C19.5875 27.6213 19.1006 28.125 18.5 28.125C17.8994 28.125 17.4125 27.6213 17.4125 27V26.525C15.0484 26.087 13.0625 24.2496 13.0625 21.75C13.0625 21.1287 13.5494 20.625 14.15 20.625C14.7506 20.625 15.2375 21.1287 15.2375 21.75C15.2375 23.0165 16.5041 24.375 18.5 24.375C20.4582 24.375 21.7144 23.0673 21.7611 21.8218L19.1082 19.1689C18.914 19.1402 18.7111 19.125 18.5 19.125C15.6911 19.125 13.0625 17.1258 13.0625 14.25C13.0625 13.8984 13.1018 13.5599 13.1759 13.2366L7.80752 7.86822ZM15.6952 12.9274C16.2321 12.1882 17.2149 11.625 18.5 11.625C20.4959 11.625 21.7625 12.9836 21.7625 14.25C21.7625 14.8713 22.2494 15.375 22.85 15.375C23.4506 15.375 23.9375 14.8713 23.9375 14.25C23.9375 11.7504 21.9516 9.913 19.5875 9.47509V9C19.5875 8.37868 19.1006 7.875 18.5 7.875C17.8994 7.875 17.4125 8.37868 17.4125 9V9.47509C16.1099 9.71638 14.9221 10.3826 14.118 11.3503L9.23161 6.46388C11.7446 4.3009 14.9754 3 18.5 3C26.5081 3 33 9.71572 33 18C33 21.4634 31.8653 24.6527 29.9595 27.1917L23.8955 21.1278C23.6064 19.014 21.8607 17.4712 19.7822 17.0145L15.6952 12.9274Z" fill="#12195A"/>
</svg>
