<svg width="36" height="36" viewBox="0 0 36 36" fill="none" xmlns="http://www.w3.org/2000/svg">
<path fill-rule="evenodd" clip-rule="evenodd" d="M19 33C27.2842 33 34 26.2842 34 18C34 9.71572 27.2842 3 19 3C10.7157 3 4 9.71572 4 18C4 26.2842 10.7157 33 19 33ZM20.125 9C20.125 8.37869 19.6213 7.875 19 7.875C18.3787 7.875 17.875 8.37869 17.875 9V9.4751C15.4294 9.91301 13.375 11.7504 13.375 14.25C13.375 17.1258 16.0942 19.125 19 19.125C21.0648 19.125 22.375 20.4836 22.375 21.75C22.375 23.0164 21.0648 24.375 19 24.375C16.9352 24.375 15.625 23.0164 15.625 21.75C15.625 21.1287 15.1213 20.625 14.5 20.625C13.8787 20.625 13.375 21.1287 13.375 21.75C13.375 24.2496 15.4294 26.087 17.875 26.525V27C17.875 27.6213 18.3787 28.125 19 28.125C19.6213 28.125 20.125 27.6213 20.125 27V26.525C22.5706 26.087 24.625 24.2496 24.625 21.75C24.625 18.8742 21.9058 16.875 19 16.875C16.9352 16.875 15.625 15.5164 15.625 14.25C15.625 12.9836 16.9352 11.625 19 11.625C21.0648 11.625 22.375 12.9836 22.375 14.25C22.375 14.8713 22.8787 15.375 23.5 15.375C24.1213 15.375 24.625 14.8713 24.625 14.25C24.625 11.7504 22.5706 9.91301 20.125 9.4751V9Z" fill="#FF7A00"/>
</svg>
