<svg width="94" height="94" viewBox="0 0 94 94" fill="none" xmlns="http://www.w3.org/2000/svg">
<path fill-rule="evenodd" clip-rule="evenodd" d="M66.1907 28.1999C66.1907 17.8317 57.5836 9.39991 47 9.39991C36.4164 9.39991 27.8093 17.8317 27.8093 28.1999C27.8093 38.5681 36.4164 46.9999 47 46.9999C57.5836 46.9999 66.1907 38.5681 66.1907 28.1999ZM84.3451 93.9998H75.786C73.1377 93.9998 70.9884 91.8942 70.9884 89.2998C70.9884 86.7054 73.1377 84.5998 75.786 84.5998H77.8441C81.1641 84.5998 83.6158 81.3239 82.3588 78.3112C76.5489 64.3803 62.9043 56.3998 47 56.3998C31.0957 56.3998 17.4511 64.3803 11.6412 78.3112C10.3842 81.3239 12.8359 84.5998 16.1559 84.5998H18.214C20.8623 84.5998 23.0116 86.7054 23.0116 89.2998C23.0116 91.8942 20.8623 93.9998 18.214 93.9998H9.65493C3.65785 93.9998 -1.06305 88.6276 0.208327 82.8889C3.70102 67.1016 14.6062 55.4503 28.9704 50.1628C22.4168 44.9975 18.214 37.0829 18.214 28.1999C18.214 11.5102 33.01 -1.79081 50.4495 0.197291C63.0866 1.63549 73.555 11.5006 75.4501 23.8286C77.0813 34.4554 72.6435 44.1609 65.0296 50.1628C79.3938 55.4503 90.299 67.1016 93.7917 82.8889C95.063 88.6276 90.3421 93.9998 84.3451 93.9998ZM61.393 89.2998C61.393 91.8942 59.2437 93.9998 56.5953 93.9998H37.4047C34.7563 93.9998 32.607 91.8942 32.607 89.2998C32.607 86.7054 34.7563 84.5998 37.4047 84.5998H56.5953C59.2437 84.5998 61.393 86.7054 61.393 89.2998Z" fill="white"/>
</svg>
